{"title":"A BRIDGE TO FAR@TFKC H.264 AAC MP4 RIP+subs","uid":4980187,"size":1048727412,"categoryP":"video","categoryS":"handheld","magnet":"?xt=urn:btih:83e905e4c19d2ab39cb0008568cdb22066f27781&amp;dn=A+BRIDGE+TO+FAR%40TFKC+H.264+AAC+MP4+RIP%2Bsubs&amp;tr=udp%3A%2F%2Ftracker.openbittorrent.com%3A80&amp;tr=udp%3A%2F%2Fopen.demonii.com%3A1337&amp;tr=udp%3A%2F%2Ftracker.coppersurfer.tk%3A6969&amp;tr=udp%3A%2F%2Fexodus.desync.com%3A6969","seeders":1,"leechers":1,"uploader":"alanwatson","files":-1,"time":1246245512,"description":"An epic film that &quot;re-creates in stunning detail one of the most disastrous battles of World War II&quot; (The Hollywood Reporter), A Bridge Too Far is a spectacular war picture. Painstakingly recreated on actual battlefield locations and boasting a remarkable cast that includes Sean Connery, Anthony Hopkins, Sir Laurence Olivier and Robert Redford, 'A Bridge Too Far' accurately recaptures the monumental scope, excitement and danger behind one of the biggest military gambles in history.\n\nIn September 1944, flush with success after the Normandy Invasion, the Allies confidently launched Operation Market Garden, a wild scheme intended to put an early end to the fighting by invading Germany and smashing the Reich's war plants. But a combination of battlefield politics, faulty intelligence, bad luck and even worse weather led to the disaster beyond the Allies' darkest fear.\n\nFormat : MPEG-4\nFormat profile : Base Media / Version 2\nCodec ID : mp42\nFile size : 1 000 MiB\nDuration : 2h 48mn\nOverall bit rate : 829 Kbps\nEncoded date : UTC 2009-06-28 02:40:52\nTagged date : UTC 2009-06-28 11:38:22\nWriting application : HandBrake 0.9.3 2008112300\n\nVideo\nFormat : AVC\nFormat/Info : Advanced Video Codec\nFormat profile : &lt;a class=&quot;__cf_email__&quot; href=&quot;/cdn-cgi/l/email-protection&quot; data-cfemail=&quot;a8e5c9c1c6e8e49c8698&quot;&gt;[email&amp;#160;protected]&lt;/a&gt;&lt;script cf-hash='f9e31' type=&quot;text/javascript&quot;&gt;\n/* &lt;![CDATA[ */!function(){try{var t=&quot;currentScript&quot;in document?document.currentScript:function(){for(var t=document.getElementsByTagName(&quot;script&quot;),e=t.length;e--;)if(t[e].getAttribute(&quot;cf-hash&quot;))return t[e]}();if(t&amp;&amp;t.previousSibling){var e,r,n,i,c=t.previousSibling,a=c.getAttribute(&quot;data-cfemail&quot;);if(a){for(e=&quot;&quot;,r=parseInt(a.substr(0,2),16),n=2;a.length-n;n+=2)i=parseInt(a.substr(n,2),16)^r,e+=String.fromCharCode(i);e=document.createTextNode(e),c.parentNode.replaceChild(e,c)}}}catch(u){}}();/* ]]&gt; */&lt;/script&gt;\nFormat settings, CABAC : Yes\nFormat settings, ReFrames : 3 frames\nCodec ID : avc1\nCodec ID/Info : Advanced Video Coding\nDuration : 2h 48mn\nBit rate mode : Variable\nBit rate : 665 Kbps\nWidth : 712 pixels\nHeight : 428 pixels\nDisplay aspect ratio : 2.35\nFrame rate mode : Variable\nFrame rate : 25.000 fps\nMinimum frame rate : 12.500 fps\nMaximum frame rate : 25.000 fps\nResolution : 24 bits\nColorimetry : 4:2:0\nScan type : Progressive\nBits/(Pixel*Frame) : 0.087\nStream size : 802 MiB (80%)\nWriting library : x264 core 65\n\n\nAudio\nFormat : AAC\nFormat/Info : Advanced Audio Codec\nFormat version : Version 4\nFormat profile : LC\nFormat settings, SBR : No\nCodec ID : 40\nDuration : 2h 48mn\nBit rate mode : Variable\nBit rate : 160 Kbps\nMaximum bit rate : 230 Kbps\nChannel(s) : 2 channels\nChannel positions : L R\nSampling rate : 48.0 KHz\nResolution : 16 bits\nStream size : 193 MiB (19%)\nLanguage : English\nEncoded date : UTC 2009-06-28 02:40:52\nTagged date : UTC 2009-06-28 11:38:15\n","torrent":{"xt":"urn:btih:83e905e4c19d2ab39cb0008568cdb22066f27781","amp;dn":"A+BRIDGE+TO+FAR%40TFKC+H.264+AAC+MP4+RIP%2Bsubs","amp;tr":["udp%3A%2F%2Ftracker.openbittorrent.com%3A80","udp%3A%2F%2Fopen.demonii.com%3A1337","udp%3A%2F%2Ftracker.coppersurfer.tk%3A6969","udp%3A%2F%2Fexodus.desync.com%3A6969"],"infoHash":"83e905e4c19d2ab39cb0008568cdb22066f27781","infoHashBuffer":{"type":"Buffer","data":[131,233,5,228,193,157,42,179,156,176,0,133,104,205,178,32,102,242,119,129]},"announce":[],"urlList":[]}}